<svg width="375" height="81" viewBox="0 0 375 81" fill="none" xmlns="http://www.w3.org/2000/svg">
<rect x="-563" y="0.267578" width="1354" height="81" fill="#4EBA64"/>
<path d="M71.0118 27.7112H75.1563V49.5002H81.9758V53.1318H71.0118V27.7112Z" fill="white"/>
<path d="M89.8067 53.4949C87.7722 53.4949 86.2149 52.9381 85.1348 51.8244C84.0547 50.7107 83.5147 49.1371 83.5147 47.1034V33.7395C83.5147 31.7058 84.0547 30.1322 85.1348 29.0185C86.2149 27.9049 87.7722 27.348 89.8067 27.348C91.8413 27.348 93.3986 27.9049 94.4787 29.0185C95.5587 30.1322 96.0988 31.7058 96.0988 33.7395V47.1034C96.0988 49.1371 95.5587 50.7107 94.4787 51.8244C93.3986 52.9381 91.8413 53.4949 89.8067 53.4949ZM89.8067 49.8634C91.2385 49.8634 91.9544 49.0281 91.9544 47.3576V33.4853C91.9544 31.8148 91.2385 30.9795 89.8067 30.9795C88.375 30.9795 87.6591 31.8148 87.6591 33.4853V47.3576C87.6591 49.0281 88.375 49.8634 89.8067 49.8634Z" fill="white"/>
<path d="M104.779 53.4949C102.77 53.4949 101.238 52.9502 100.183 51.8607C99.1276 50.7471 98.6002 49.1613 98.6002 47.1034V33.7395C98.6002 31.6816 99.1276 30.108 100.183 29.0185C101.238 27.9049 102.77 27.348 104.779 27.348C106.789 27.348 108.321 27.9049 109.376 29.0185C110.431 30.108 110.958 31.6816 110.958 33.7395V35.9184H107.04V33.4853C107.04 31.8148 106.324 30.9795 104.892 30.9795C103.461 30.9795 102.745 31.8148 102.745 33.4853V47.394C102.745 49.0403 103.461 49.8634 104.892 49.8634C106.324 49.8634 107.04 49.0403 107.04 47.394V42.4188H104.968V38.7873H110.958V47.1034C110.958 49.1613 110.431 50.7471 109.376 51.8607C108.321 52.9502 106.789 53.4949 104.779 53.4949Z" fill="white"/>
<path d="M119.61 53.4949C117.575 53.4949 116.018 52.9381 114.938 51.8244C113.858 50.7107 113.318 49.1371 113.318 47.1034V33.7395C113.318 31.7058 113.858 30.1322 114.938 29.0185C116.018 27.9049 117.575 27.348 119.61 27.348C121.644 27.348 123.202 27.9049 124.282 29.0185C125.362 30.1322 125.902 31.7058 125.902 33.7395V47.1034C125.902 49.1371 125.362 50.7107 124.282 51.8244C123.202 52.9381 121.644 53.4949 119.61 53.4949ZM119.61 49.8634C121.042 49.8634 121.757 49.0281 121.757 47.3576V33.4853C121.757 31.8148 121.042 30.9795 119.61 30.9795C118.178 30.9795 117.462 31.8148 117.462 33.4853V47.3576C117.462 49.0281 118.178 49.8634 119.61 49.8634Z" fill="white"/>
<path d="M128.713 27.7112H132.857V53.1318H128.713V27.7112Z" fill="white"/>
<path d="M135.961 27.7112H142.064C144.124 27.7112 145.669 28.2438 146.699 29.309C147.729 30.3743 148.244 31.9358 148.244 33.9937V36.4994C148.244 38.5573 147.729 40.1188 146.699 41.1841C145.669 42.2493 144.124 42.7819 142.064 42.7819H140.106V53.1318H135.961V27.7112ZM142.064 39.1504C142.743 39.1504 143.245 38.9688 143.572 38.6057C143.924 38.2425 144.099 37.6252 144.099 36.7536V33.7395C144.099 32.8679 143.924 32.2506 143.572 31.8874C143.245 31.5243 142.743 31.3427 142.064 31.3427H140.106V39.1504H142.064Z" fill="white"/>
<path d="M156.029 53.4949C154.021 53.4949 152.501 52.9502 151.47 51.8607C150.441 50.7471 149.926 49.1613 149.926 47.1034V45.6508H153.844V47.394C153.844 49.0403 154.56 49.8634 155.992 49.8634C156.695 49.8634 157.222 49.6697 157.574 49.2824C157.951 48.8708 158.139 48.2171 158.139 47.3213C158.139 46.2561 157.888 45.324 157.386 44.5251C156.884 43.7019 155.954 42.7214 154.597 41.5835C152.89 40.1309 151.697 38.8236 151.018 37.6615C150.341 36.4752 150.001 35.1437 150.001 33.6669C150.001 31.6574 150.528 30.108 151.583 29.0185C152.639 27.9049 154.171 27.348 156.181 27.348C158.164 27.348 159.659 27.9049 160.664 29.0185C161.694 30.108 162.208 31.6816 162.208 33.7395V34.7926H158.29V33.4853C158.29 32.6137 158.115 31.9843 157.763 31.5969C157.411 31.1853 156.896 30.9795 156.218 30.9795C154.836 30.9795 154.146 31.7906 154.146 33.4127C154.146 34.3326 154.397 35.1921 154.899 35.991C155.426 36.7899 156.368 37.7583 157.725 38.8962C159.458 40.3488 160.651 41.6683 161.305 42.8546C161.957 44.0409 162.284 45.4329 162.284 47.0308C162.284 49.1129 161.744 50.7107 160.664 51.8244C159.609 52.9381 158.064 53.4949 156.029 53.4949Z" fill="white"/>
<path d="M170.689 53.4949C168.679 53.4949 167.147 52.9502 166.092 51.8607C165.037 50.7471 164.51 49.1613 164.51 47.1034V27.7112H168.654V47.394C168.654 48.2655 168.83 48.895 169.182 49.2824C169.558 49.6697 170.086 49.8634 170.764 49.8634C171.442 49.8634 171.957 49.6697 172.309 49.2824C172.685 48.895 172.874 48.2655 172.874 47.394V27.7112H176.867V47.1034C176.867 49.1613 176.34 50.7471 175.285 51.8607C174.23 52.9502 172.698 53.4949 170.689 53.4949Z" fill="white"/>
<path d="M179.819 27.7112H185.735L188.372 45.905H188.447L191.085 27.7112H197V53.1318H193.081V33.8848H193.007L189.992 53.1318H186.525L183.511 33.8848H183.437V53.1318H179.819V27.7112Z" fill="white"/>
<path d="M31 53.1318C36.0988 53.1318 40.2321 49.1478 40.2321 44.2334C40.2321 39.3189 36.0988 35.335 31 35.335V41.5638C32.5296 41.5638 33.7696 42.759 33.7696 44.2334C33.7696 45.7077 32.5296 46.9029 31 46.9029V53.1318Z" fill="white"/>
<path d="M61.7737 38.3011C60.1961 37.8194 58.5161 37.5595 56.773 37.5595C47.6377 37.5595 40.2321 44.6975 40.2321 53.5025C40.2321 54.3863 40.3067 55.2533 40.4502 56.0979H50.7275C50.3607 55.3051 50.1567 54.4268 50.1567 53.5025C50.1567 49.9805 53.1189 47.1253 56.773 47.1253C58.7701 47.1253 60.5606 47.9782 61.7737 49.3267V38.3011Z" fill="white"/>
<path d="M32.6232 26.4365C33.3886 33.1103 39.2588 38.3011 46.3869 38.3011C53.5148 38.3011 59.3851 33.1103 60.1504 26.4365H50.247C49.6356 27.9138 48.1376 28.9577 46.3869 28.9577C44.636 28.9577 43.1381 27.9138 42.5266 26.4365H32.6232Z" fill="white"/>
<path d="M312.732 47.9095V28.9655H309.625V47.9095H312.732Z" fill="white"/>
<path d="M314.633 41.5948C314.633 45.4651 317.23 48.215 321.177 48.215C325.124 48.215 327.721 45.4651 327.721 41.5948C327.721 37.7245 325.124 34.9746 321.177 34.9746C317.23 34.9746 314.633 37.7245 314.633 41.5948ZM317.765 41.5948C317.765 39.3287 319.114 37.75 321.177 37.75C323.239 37.75 324.589 39.3287 324.589 41.5948C324.589 43.8355 323.239 45.4396 321.177 45.4396C319.114 45.4396 317.765 43.8355 317.765 41.5948Z" fill="white"/>
<path d="M328.766 41.3402C328.766 45.0068 331.134 47.6549 334.673 47.6549C336.506 47.6549 338.085 46.9164 338.874 45.6943V47.8331C338.874 49.8955 337.576 51.2705 335.411 51.2705C333.476 51.2705 332.152 50.3284 331.974 48.6733H328.842C329.249 51.958 331.77 54.0968 335.233 54.0968C339.307 54.0968 341.904 51.4233 341.904 47.2729V35.3311H339.154L338.976 37.0371C338.212 35.713 336.633 34.9237 334.775 34.9237C331.184 34.9237 328.766 37.6482 328.766 41.3402ZM331.923 41.2638C331.923 39.1759 333.247 37.6482 335.208 37.6482C337.346 37.6482 338.772 39.2014 338.772 41.2638C338.772 43.3517 337.346 44.9559 335.208 44.9559C333.272 44.9559 331.923 43.3772 331.923 41.2638Z" fill="white"/>
<path d="M343.441 41.5948C343.441 45.4651 346.039 48.215 349.985 48.215C353.932 48.215 356.529 45.4651 356.529 41.5948C356.529 37.7245 353.932 34.9746 349.985 34.9746C346.039 34.9746 343.441 37.7245 343.441 41.5948ZM346.573 41.5948C346.573 39.3287 347.923 37.75 349.985 37.75C352.048 37.75 353.397 39.3287 353.397 41.5948C353.397 43.8355 352.048 45.4396 349.985 45.4396C347.923 45.4396 346.573 43.8355 346.573 41.5948Z" fill="white"/>
<path d="M359.891 32.7594C360.909 32.7594 361.75 31.9446 361.75 30.9006C361.75 29.8821 360.909 29.0674 359.891 29.0674C358.847 29.0674 358.058 29.8821 358.058 30.9006C358.058 31.9446 358.847 32.7594 359.891 32.7594ZM358.338 47.9095H361.444V35.3311H358.338V47.9095Z" fill="white"/>
<path d="M364.166 53.7404H367.196V46.178C367.985 47.4766 369.691 48.2405 371.575 48.2405C375.293 48.2405 377.508 45.3887 377.457 41.4675C377.381 37.5208 375.115 34.9492 371.55 34.9492C369.64 34.9492 367.909 35.7894 367.145 37.2408L366.967 35.3311H364.166V53.7404ZM367.323 41.6203C367.323 39.3541 368.698 37.7755 370.862 37.7755C373.027 37.7755 374.325 39.3796 374.325 41.6203C374.325 43.861 373.027 45.4396 370.862 45.4396C368.698 45.4396 367.323 43.8864 367.323 41.6203Z" fill="white"/>
<path d="M378.245 44.1411C378.347 46.6364 380.282 48.2405 383.287 48.2405C386.24 48.2405 388.252 46.6618 388.252 44.2174C388.252 42.4096 387.132 41.1874 385.069 40.6782L382.854 40.1435C381.912 39.8888 381.275 39.5578 381.275 38.743C381.275 37.8773 381.963 37.2662 383.083 37.2662C384.254 37.2662 385.018 37.9282 385.018 39.0231H387.845C387.743 36.5278 385.884 34.9492 383.16 34.9492C380.461 34.9492 378.449 36.5278 378.449 38.9213C378.449 40.5509 379.391 41.9004 381.81 42.5369L384 43.0971C384.815 43.3263 385.324 43.7082 385.324 44.4211C385.324 45.4142 384.382 45.8725 383.236 45.8725C381.861 45.8725 381.072 45.2359 381.072 44.1411H378.245Z" fill="white"/>
<path d="M394.696 48.2405C396.402 48.2405 398.032 47.4512 398.77 46.2799L398.974 47.9095H401.877V35.3311H398.77V41.9258C398.77 44.192 397.904 45.4651 395.867 45.4651C394.289 45.4651 393.194 44.7012 393.194 42.1041V35.3311H390.087V43.1989C390.087 46.2035 391.717 48.2405 394.696 48.2405Z" fill="white"/>
<path d="M407.724 47.9095V40.6782C407.724 38.6412 408.921 37.6736 410.398 37.6736C411.874 37.6736 412.842 38.6157 412.842 40.3981V47.9095H415.872V40.7036C415.872 38.6412 417.043 37.6736 418.52 37.6736C420.022 37.6736 420.99 38.6157 420.99 40.3981V47.9095H423.994V39.6851C423.994 36.7824 422.39 34.9492 419.335 34.9492C417.425 34.9492 415.923 35.8658 415.312 37.3426C414.624 35.8658 413.249 34.9492 411.161 34.9492C409.685 34.9492 408.361 35.6366 407.622 36.757L407.469 35.3311H404.618V47.9095H407.724Z" fill="white"/>
<path d="M400.277 59.1505C400.74 59.1505 401.141 58.7609 401.141 58.2981C401.141 57.8232 400.74 57.4335 400.277 57.4335C399.802 57.4335 399.4 57.8232 399.4 58.2981C399.4 58.7609 399.802 59.1505 400.277 59.1505Z" fill="white"/>
<path d="M402.035 56.0087C402.035 57.8719 403.18 59.1262 404.848 59.1262C406.285 59.1262 407.381 58.2616 407.612 56.9707H406.516C406.309 57.6892 405.676 58.1154 404.921 58.1154C403.849 58.1154 403.167 57.2874 403.167 55.9965C403.167 54.6814 403.886 53.8776 404.945 53.8776C405.676 53.8776 406.309 54.2673 406.504 55.0345H407.6C407.405 53.7315 406.382 52.8547 404.958 52.8547C403.228 52.8547 402.035 54.1334 402.035 56.0087Z" fill="white"/>
<path d="M408.044 55.9965C408.044 57.7867 409.262 59.1262 411.088 59.1262C412.915 59.1262 414.133 57.7867 414.133 55.9965C414.133 54.2064 412.915 52.8669 411.088 52.8669C409.262 52.8669 408.044 54.2064 408.044 55.9965ZM409.201 55.9965C409.201 54.7788 409.944 53.8898 411.088 53.8898C412.233 53.8898 412.976 54.7788 412.976 55.9965C412.976 57.2143 412.233 58.1033 411.088 58.1033C409.944 58.1033 409.201 57.2143 409.201 55.9965Z" fill="white"/>
<path d="M416.255 58.9922V55.412C416.255 54.4743 416.84 53.8655 417.692 53.8655C418.508 53.8655 419.019 54.3891 419.019 55.3268V58.9922H420.14V55.4242C420.14 54.4743 420.712 53.8655 421.577 53.8655C422.38 53.8655 422.892 54.3891 422.892 55.3268V58.9922H424V55.0832C424 53.7071 423.196 52.8669 421.832 52.8669C420.907 52.8669 420.188 53.3175 419.896 54.0481C419.592 53.3175 418.922 52.8669 417.948 52.8669C417.205 52.8669 416.547 53.2079 416.218 53.7924L416.133 53.0374H415.11V58.9922H416.255Z" fill="white"/>
<path fill-rule="evenodd" clip-rule="evenodd" d="M258 41.749L258.002 41.5272L258.007 41.3052L258.013 41.0833L258.022 40.8613L258.033 40.6393L258.047 40.4174L258.063 40.1955L258.081 39.9736L258.101 39.7519L258.124 39.5302L258.149 39.3087L258.176 39.0873L258.205 38.8661L258.237 38.6452L258.271 38.4244L258.308 38.204L258.346 37.9837L258.387 37.7638L258.43 37.5442L258.476 37.3249L258.523 37.1059L258.573 36.8874L258.625 36.6693L258.68 36.4515L258.737 36.2343L258.796 36.0175L258.857 35.8011L258.92 35.5854L258.986 35.3702L259.054 35.1555L259.124 34.9414L259.196 34.7279L259.271 34.515L259.348 34.3027L259.427 34.0912L259.508 33.8803L259.591 33.6702L259.677 33.4607L259.765 33.2521L259.855 33.0442L259.947 32.8371L260.041 32.6309L260.137 32.4255L260.236 32.2209L260.337 32.0172L260.439 31.8145L260.544 31.6127L260.651 31.4118L260.76 31.2119L260.872 31.013L260.985 30.8151L261.1 30.6182L261.218 30.4224L261.337 30.2277L261.459 30.034L261.582 29.8415L261.708 29.6502L261.836 29.4599L261.965 29.2709L262.097 29.0831L262.23 28.8964L262.366 28.7111L262.503 28.5269L262.643 28.3441L262.784 28.1626L262.927 27.9823L263.073 27.8034L263.22 27.6258L263.369 27.4496L263.519 27.2748L263.672 27.1015L263.827 26.9295L263.983 26.759L264.141 26.59L264.301 26.4225L264.463 26.2564L264.626 26.0919L264.791 25.9289L264.958 25.7675L265.127 25.6077L265.297 25.4494L265.469 25.2928L265.643 25.1378L265.818 24.9844L265.995 24.8327L266.174 24.6826L266.354 24.5343L266.536 24.3877L266.719 24.2428L266.904 24.0996L267.091 23.9582L267.279 23.8186L267.468 23.6807L267.659 23.5447L267.852 23.4105L268.046 23.2781L268.241 23.1476L268.438 23.019L268.636 22.8922L268.835 22.7673L269.036 22.6443L269.239 22.5233L269.442 22.4042L269.647 22.287L269.853 22.1718L270.06 22.0586L270.269 21.9473L270.479 21.8381L270.69 21.7309L270.902 21.6257L271.115 21.5226L271.33 21.4215L271.545 21.3225L271.762 21.2255L271.98 21.1306L272.199 21.0379L272.419 20.9472L272.639 20.8587L272.861 20.7723L273.084 20.6881L273.308 20.6059L273.533 20.526L273.758 20.4482L273.985 20.3727L274.212 20.2993L274.44 20.2281L274.669 20.1591L274.899 20.0923L275.13 20.0278L275.361 19.9655L275.593 19.9054L275.826 19.8476L276.059 19.7921L276.293 19.7388L276.528 19.6878L276.763 19.6391L276.999 19.5927L277.235 19.5486L277.472 19.5067L277.71 19.4672L277.948 19.43L278.187 19.3951L278.425 19.3625L278.665 19.3323L278.905 19.3044L279.145 19.2788L279.385 19.2556L279.626 19.2348L279.867 19.2162L280.108 19.2001L281.406 19.126L281.48 25.3794L281.523 25.3789L281.702 25.3786L281.881 25.3801L282.06 25.3834L282.24 25.3884L282.419 25.3952L282.599 25.4038L282.778 25.4141L282.958 25.4262L283.137 25.4401L283.316 25.4557L283.496 25.4731L283.675 25.4923L283.854 25.5132L284.033 25.5359L284.212 25.5604L284.39 25.5866L284.569 25.6147L284.747 25.6444L284.925 25.676L285.103 25.7093L285.281 25.7444L285.458 25.7812L285.635 25.8198L285.812 25.8601L285.988 25.9022L286.164 25.9461L286.34 25.9917L286.515 26.0391L286.69 26.0882L286.865 26.139L287.039 26.1916L287.212 26.246L287.385 26.302L287.558 26.3598L287.73 26.4193L287.902 26.4805L288.073 26.5435L288.243 26.6081L288.413 26.6745L288.583 26.7426L288.752 26.8123L288.92 26.8838L289.087 26.9569L289.254 27.0318L289.42 27.1083L289.585 27.1864L289.75 27.2662L289.914 27.3477L290.077 27.4309L290.24 27.5156L290.401 27.6021L290.562 27.6901L290.722 27.7798L290.881 27.8711L291.04 27.964L291.197 28.0585L291.354 28.1546L291.509 28.2522L291.664 28.3515L291.818 28.4523L291.97 28.5547L292.122 28.6586L292.273 28.764L292.423 28.8711L292.572 28.9796L292.719 29.0896L292.866 29.2012L293.012 29.3142L293.156 29.4288L293.3 29.5447L293.442 29.6622L293.583 29.7812L293.723 29.9015L293.862 30.0233L294 30.1465L294.136 30.2712L294.272 30.3973L294.406 30.5247L294.539 30.6534L294.67 30.7836L294.8 30.9151L294.929 31.0481L295.057 31.1823L295.183 31.3178L295.309 31.4546L295.432 31.5928L295.554 31.7322L295.676 31.8729L295.795 32.0148L295.913 32.1579L296.03 32.3024L296.145 32.448L296.259 32.5948L296.372 32.7428L296.483 32.892L296.592 33.0424L296.7 33.1939L296.807 33.3466L296.912 33.5002L297.015 33.6551L297.117 33.8111L297.218 33.9682L297.317 34.1263L297.414 34.2854L297.51 34.4456L297.604 34.6067L297.696 34.7689L297.787 34.9321L297.876 35.0963L297.964 35.2613L298.05 35.4274L298.134 35.5943L298.217 35.7622L298.297 35.931L298.377 36.1006L298.454 36.2711L298.53 36.4425L298.604 36.6146L298.676 36.7876L298.747 36.9613L298.816 37.1359L298.883 37.3112L298.948 37.4873L299.012 37.664L299.074 37.8416L299.134 38.0197L299.192 38.1986L299.248 38.378L299.303 38.5582L299.355 38.7389L299.406 38.9203L299.455 39.1023L299.503 39.2848L299.548 39.4678L299.592 39.6515L299.633 39.8356L299.673 40.0203L299.711 40.2052L299.747 40.3909L299.781 40.5769L299.813 40.7633L299.844 40.9501L299.872 41.1373L299.899 41.3249L299.923 41.5128L299.946 41.7011L299.967 41.8896L299.986 42.0785L300.003 42.2676L300.018 42.457L300.031 42.6466L300.042 42.8365L300.051 43.0265L300.058 43.2168L300.063 43.4071L300.067 43.5976L300.068 43.7882L300.068 43.979L300.065 44.1698L300.061 44.3608L300.054 44.5517L300.046 44.7426L300.035 44.9336L300.023 45.1246L300.009 45.3155L299.992 45.5064L299.974 45.6972L299.954 45.888L299.932 46.0785L299.908 46.269L299.882 46.4593L299.854 46.6495L299.824 46.8395L299.792 47.0293L299.758 47.2188L299.722 47.4081L299.684 47.5972L299.644 47.7859L299.602 47.9744L299.558 48.1626L299.513 48.3503L299.465 48.5377L299.415 48.7247L299.364 48.9114L299.311 49.0976L299.255 49.2833L299.198 49.4688L299.138 49.6535L299.077 49.838L299.014 50.0217L298.949 50.2051L298.882 50.3879L298.813 50.57L298.743 50.7515L298.67 50.9325L298.596 51.1129L298.519 51.2925L298.441 51.4717L298.361 51.6499L298.279 51.8276L298.195 52.0045L298.109 52.1806L298.021 52.3561L297.932 52.5307L297.841 52.7046L297.748 52.8775L297.653 53.0498L297.556 53.221L297.458 53.3915L297.357 53.5611L297.255 53.7297L297.151 53.8976L297.046 54.0643L296.938 54.2301L296.829 54.395L296.718 54.5588L296.606 54.7216L296.491 54.8835L296.375 55.0442L296.258 55.204L296.138 55.3626L296.017 55.5202L295.894 55.6765L295.77 55.8318L295.644 55.9859L295.516 56.1388L295.387 56.2906L295.256 56.4411L295.123 56.5905L294.989 56.7386L294.853 56.8855L294.716 57.0311L294.577 57.1754L294.436 57.3184L294.294 57.4601L294.151 57.6004L294.006 57.7395L293.86 57.8772L293.712 58.0135L293.562 58.1484L293.411 58.2818L293.259 58.4139L293.105 58.5447L292.95 58.6738L292.794 58.8015L292.636 58.9278L292.477 59.0526L292.316 59.1758L292.154 59.2975L291.991 59.4177L291.826 59.5364L291.66 59.6534L291.493 59.7689L291.325 59.8829L291.155 59.9951L290.984 60.1058L290.812 60.215L290.639 60.3224L290.464 60.4282L290.289 60.5323L290.112 60.6348L289.934 60.7355L289.755 60.8345L289.575 60.9319L289.394 61.0275L289.212 61.1213L289.028 61.2136L288.844 61.3039L288.659 61.3924L288.472 61.4794L288.285 61.5644L288.097 61.6476L287.907 61.729L287.717 61.8086L287.526 61.8864L287.335 61.9624L287.142 62.0364L286.948 62.1087L286.754 62.179L286.559 62.2475L286.363 62.3141L286.166 62.3788L285.968 62.4416L285.77 62.5025L285.571 62.5615L285.371 62.6185L285.171 62.6736L284.97 62.7269L284.768 62.778L284.566 62.8273L284.363 62.8747L284.16 62.92L283.956 62.9634L283.752 63.0048L283.547 63.0442L283.341 63.0816L283.135 63.1169L282.929 63.1503L282.722 63.1818L282.515 63.2111L282.307 63.2385L282.099 63.2638L281.891 63.2871L281.682 63.3083L281.473 63.3276L281.264 63.3447L281.054 63.3599L280.844 63.373L280.634 63.384L280.424 63.393L280.214 63.3999L280.003 63.4047L279.792 63.4075L279.581 63.4083L279.37 63.407L279.159 63.4035L278.948 63.3981L278.737 63.3905L278.526 63.3808L278.315 63.3692L278.104 63.3554L277.893 63.3395L277.682 63.3216L277.471 63.3016L277.26 63.2795L277.05 63.2554L276.839 63.2292L276.629 63.2008L276.419 63.1704L276.209 63.1379L275.999 63.1034L275.79 63.0669L275.581 63.0281L275.372 62.9874L275.164 62.9447L274.956 62.8997L274.748 62.8528L274.541 62.8038L274.334 62.7528L274.127 62.6997L273.921 62.6445L273.716 62.5874L273.511 62.5282L273.306 62.467L273.102 62.4036L272.899 62.3383L272.696 62.271L272.494 62.2016L272.292 62.1302L272.091 62.0569L271.891 61.9815L271.692 61.9041L271.493 61.8248L271.295 61.7434L271.097 61.66L270.901 61.5748L270.705 61.4875L270.51 61.3983L270.315 61.3071L270.122 61.214L269.93 61.1189L269.738 61.0219L269.547 60.9231L269.358 60.8222L269.169 60.7196L268.981 60.615L268.794 60.5085L268.609 60.4001L268.424 60.2898L268.24 60.1778L268.058 60.0638L267.876 59.9481L267.696 59.8304L267.516 59.711L267.338 59.5897L267.161 59.4667L266.986 59.342L266.811 59.2153L266.638 59.087L266.466 58.9568L266.295 58.825L266.125 58.6914L265.957 58.5561L265.79 58.4191L265.624 58.2804L265.46 58.14L265.297 57.998L265.136 57.8542L264.976 57.7088L264.817 57.5619L264.66 57.4132L264.504 57.2631L264.35 57.1112L264.197 56.9579L264.046 56.803L263.896 56.6465L263.748 56.4885L263.601 56.329L263.456 56.1679L263.312 56.0054L263.171 55.8414L263.03 55.6759L262.892 55.5091L262.755 55.3407L262.619 55.171L262.486 54.9999L262.354 54.8274L262.224 54.6535L262.095 54.4782L261.969 54.3016L261.844 54.1237L261.72 53.9446L261.599 53.7642L261.479 53.5824L261.362 53.3995L261.246 53.2153L261.132 53.0298L261.019 52.8433L260.909 52.6554L260.8 52.4666L260.694 52.2765L260.589 52.0853L260.486 51.8929L260.385 51.6995L260.287 51.5051L260.19 51.3096L260.095 51.1131L260.002 50.9155L259.91 50.717L259.821 50.5174L259.734 50.317L259.649 50.1155L259.566 49.9133L259.485 49.71L259.407 49.5059L259.33 49.3009L259.255 49.0951L259.182 48.8886L259.112 48.6812L259.043 48.473L258.977 48.2641L258.913 48.0544L258.85 47.8441L258.79 47.6329L258.733 47.4212L258.677 47.2088L258.623 46.9958L258.572 46.7822L258.523 46.5679L258.476 46.3531L258.431 46.1377L258.388 45.9219L258.347 45.7055L258.309 45.4887L258.273 45.2714L258.239 45.0536L258.208 44.8354L258.178 44.6168L258.151 44.3978L258.126 44.1785L258.103 43.9588L258.083 43.739L258.065 43.5187L258.049 43.2981L258.035 43.0774L258.023 42.8564L258.014 42.6352L258.007 42.4139L258.003 42.1924L258 41.9708L258 41.749ZM279.453 25.5104L279.402 21.248L279.354 21.2526L279.134 21.276L278.915 21.3016L278.695 21.3293L278.477 21.3591L278.258 21.391L278.04 21.4251L277.823 21.4613L277.606 21.4996L277.39 21.54L277.173 21.5825L276.958 21.6271L276.743 21.6738L276.529 21.7225L276.315 21.7734L276.102 21.8263L275.89 21.8813L275.678 21.9383L275.467 21.9974L275.257 22.0584L275.047 22.1216L274.838 22.1867L274.63 22.2539L274.423 22.323L274.217 22.3942L274.011 22.4674L273.806 22.5425L273.602 22.6196L273.399 22.6986L273.198 22.7795L272.996 22.8625L272.796 22.9474L272.597 23.0342L272.399 23.1228L272.201 23.2134L272.005 23.3058L271.81 23.4002L271.616 23.4964L271.423 23.5944L271.231 23.6943L271.04 23.796L270.851 23.8995L270.662 24.0049L270.475 24.1121L270.289 24.2208L270.104 24.3317L269.921 24.444L269.738 24.5581L269.557 24.6741L269.377 24.7917L269.199 24.9111L269.022 25.0318L268.845 25.1547L268.671 25.279L268.498 25.4049L268.326 25.5326L268.155 25.6617L267.987 25.7925L267.819 25.925L267.653 26.0589L267.488 26.1945L267.325 26.3315L267.163 26.4702L267.003 26.6102L266.844 26.7519L266.687 26.895L266.531 27.0396L266.378 27.1855L266.225 27.333L266.074 27.4818L265.925 27.6321L265.777 27.7839L265.631 27.9368L265.487 28.0909L265.344 28.2469L265.203 28.4039L265.064 28.562L264.926 28.7217L264.79 28.8825L264.656 29.0447L264.523 29.208L264.392 29.3726L264.263 29.5383L264.136 29.7051L264.011 29.8732L263.887 30.0426L263.765 30.2127L263.645 30.3843L263.527 30.5568L263.41 30.7304L263.295 30.9051L263.183 31.0808L263.072 31.2573L262.963 31.435L262.856 31.6136L262.75 31.7933L262.647 31.9739L262.546 32.1553L262.446 32.3376L262.348 32.5209L262.253 32.705L262.159 32.89L262.067 33.0757L261.977 33.2622L261.889 33.4495L261.803 33.6377L261.719 33.8265L261.637 34.0161L261.557 34.2064L261.479 34.3973L261.403 34.5889L261.329 34.7812L261.257 34.9741L261.187 35.1676L261.119 35.3615L261.053 35.5563L260.989 35.7514L260.927 35.9472L260.867 36.1432L260.81 36.3401L260.754 36.5371L260.7 36.7347L260.648 36.9327L260.599 37.1312L260.551 37.3299L260.506 37.529L260.462 37.7285L260.421 37.9284L260.382 38.1284L260.344 38.3288L260.309 38.5294L260.276 38.7303L260.245 38.9314L260.216 39.1326L260.189 39.3341L260.165 39.5357L260.142 39.7374L260.121 39.9393L260.103 40.1413L260.086 40.3432L260.072 40.5453L260.059 40.7475L260.049 40.9495L260.041 41.1517L260.035 41.3537L260.031 41.5557L260.029 41.7577L260.029 41.9596L260.031 42.1613L260.036 42.363L260.042 42.5645L260.05 42.7658L260.061 42.9669L260.073 43.1677L260.088 43.3684L260.104 43.5688L260.123 43.769L260.144 43.9689L260.166 44.1684L260.191 44.3677L260.218 44.5665L260.247 44.765L260.278 44.9632L260.31 45.1608L260.345 45.358L260.382 45.5549L260.421 45.7512L260.462 45.9471L260.504 46.1424L260.549 46.3372L260.596 46.5315L260.645 46.7253L260.695 46.9184L260.748 47.1108L260.803 47.3028L260.859 47.4941L260.918 47.6847L260.978 47.8747L261.04 48.0639L261.104 48.2524L261.17 48.4402L261.238 48.6273L261.308 48.8135L261.38 48.999L261.453 49.1837L261.529 49.3676L261.606 49.5506L261.685 49.7327L261.766 49.914L261.849 50.0945L261.933 50.2739L262.02 50.4525L262.108 50.6301L262.198 50.8068L262.289 50.9825L262.383 51.1571L262.478 51.3308L262.574 51.5034L262.673 51.675L262.773 51.8456L262.875 52.015L262.979 52.1834L263.084 52.3507L263.191 52.5167L263.3 52.6818L263.41 52.8456L263.522 53.0083L263.635 53.1698L263.75 53.3301L263.867 53.4892L263.985 53.647L264.105 53.8036L264.226 53.9589L264.349 54.1129L264.473 54.2657L264.599 54.4172L264.726 54.5673L264.855 54.7161L264.985 54.8636L265.117 55.0097L265.25 55.1544L265.384 55.2978L265.52 55.4397L265.657 55.5803L265.796 55.7194L265.936 55.857L266.077 55.9933L266.22 56.1281L266.364 56.2615L266.509 56.3933L266.655 56.5236L266.803 56.6524L266.952 56.7797L267.102 56.9054L267.253 57.0296L267.406 57.1524L267.56 57.2734L267.715 57.393L267.871 57.511L268.028 57.6273L268.186 57.742L268.345 57.8552L268.506 57.9667L268.667 58.0766L268.829 58.1847L268.993 58.2914L269.157 58.3963L269.323 58.4995L269.489 58.6011L269.657 58.701L269.825 58.7992L269.994 58.8956L270.164 58.9904L270.335 59.0833L270.507 59.1747L270.68 59.2642L270.853 59.3521L271.028 59.4382L271.203 59.5225L271.379 59.6051L271.555 59.6859L271.732 59.7649L271.911 59.8421L272.089 59.9175L272.269 59.9912L272.449 60.0631L272.629 60.1331L272.811 60.2014L272.993 60.2678L273.175 60.3323L273.358 60.3951L273.542 60.4561L273.726 60.5152L273.91 60.5724L274.095 60.6279L274.281 60.6815L274.467 60.7332L274.653 60.7831L274.84 60.8312L275.027 60.8773L275.215 60.9216L275.403 60.9641L275.591 61.0046L275.779 61.0434L275.968 61.0803L276.157 61.1152L276.346 61.1483L276.536 61.1796L276.726 61.2089L276.916 61.2364L277.106 61.2619L277.296 61.2857L277.487 61.3075L277.677 61.3275L277.868 61.3456L278.058 61.3618L278.249 61.3762L278.44 61.3886L278.631 61.3992L278.822 61.4078L279.012 61.4147L279.203 61.4197L279.394 61.4227L279.584 61.4239L279.775 61.4232L279.965 61.4207L280.155 61.4164L280.346 61.41L280.535 61.402L280.725 61.392L280.915 61.3802L281.104 61.3665L281.293 61.351L281.482 61.3337L281.67 61.3144L281.858 61.2934L282.046 61.2706L282.234 61.2459L282.421 61.2193L282.608 61.191L282.794 61.1609L282.98 61.1289L283.165 61.0951L283.35 61.0596L283.535 61.0222L283.719 60.9831L283.903 60.9422L284.086 60.8995L284.268 60.855L284.45 60.8088L284.631 60.7608L284.812 60.7111L284.992 60.6596L285.172 60.6063L285.351 60.5514L285.529 60.4948L285.706 60.4364L285.883 60.3764L286.059 60.3146L286.235 60.2511L286.409 60.186L286.583 60.1191L286.756 60.0507L286.928 59.9806L287.099 59.9088L287.27 59.8354L287.44 59.7603L287.608 59.6837L287.777 59.6054L287.944 59.5255L288.11 59.4441L288.275 59.361L288.439 59.2764L288.602 59.1903L288.765 59.1025L288.926 59.0133L289.086 58.9225L289.245 58.8303L289.404 58.7364L289.561 58.6412L289.717 58.5443L289.872 58.4461L290.026 58.3464L290.179 58.2452L290.331 58.1425L290.481 58.0386L290.63 57.9331L290.779 57.8263L290.926 57.7181L291.071 57.6084L291.216 57.4976L291.36 57.3851L291.502 57.2715L291.642 57.1566L291.782 57.0403L291.921 56.9226L292.058 56.8038L292.193 56.6836L292.328 56.5622L292.461 56.4396L292.593 56.3157L292.723 56.1907L292.852 56.0643L292.98 55.9368L293.106 55.8081L293.231 55.6783L293.355 55.5474L293.477 55.4154L293.598 55.2819L293.717 55.1478L293.835 55.0123L293.951 54.8759L294.066 54.7383L294.179 54.5998L294.291 54.4602L294.402 54.3195L294.51 54.178L294.618 54.0353L294.724 53.8918L294.828 53.7472L294.931 53.6016L295.032 53.4555L295.132 53.3082L295.23 53.1601L295.326 53.011L295.421 52.861L295.514 52.7105L295.606 52.559L295.696 52.4063L295.785 52.2535L295.872 52.0995L295.957 51.9447L296.04 51.7895L296.122 51.6332L296.203 51.4762L296.281 51.3191L296.358 51.1607L296.434 51.0017L296.507 50.8423L296.579 50.6822L296.65 50.5215L296.718 50.3603L296.785 50.1982L296.85 50.0357L296.914 49.8731L296.976 49.7092L297.036 49.5454L297.094 49.3808L297.151 49.2158L297.206 49.0503L297.259 48.8848L297.31 48.7181L297.36 48.5516L297.408 48.3845L297.454 48.2172L297.498 48.0493L297.541 47.8814L297.582 47.7129L297.621 47.544L297.659 47.3751L297.695 47.2057L297.729 47.0365L297.761 46.8664L297.791 46.6968L297.82 46.5265L297.847 46.3562L297.872 46.1858L297.895 46.0151L297.917 45.8446L297.937 45.6733L297.955 45.5027L297.971 45.3316L297.986 45.1608L297.999 44.9894L298.01 44.8187L298.019 44.6474L298.027 44.476L298.032 44.3051L298.036 44.1345L298.039 43.9633L298.039 43.7923L298.038 43.6216L298.035 43.451L298.03 43.2804L298.024 43.1105L298.015 42.9399L298.006 42.7701L297.994 42.6003L297.98 42.431L297.965 42.2614L297.948 42.0926L297.93 41.9236L297.909 41.7552L297.887 41.587L297.864 41.4192L297.838 41.2514L297.811 41.0844L297.782 40.9179L297.752 40.7512L297.719 40.5852L297.685 40.4198L297.65 40.2543L297.613 40.09L297.574 39.9255L297.533 39.7621L297.491 39.5985L297.447 39.4361L297.402 39.2739L297.354 39.112L297.306 38.9512L297.255 38.7909L297.203 38.6307L297.15 38.4717L297.094 38.3128L297.038 38.155L296.979 37.9974L296.919 37.841L296.858 37.6848L296.795 37.5295L296.73 37.3752L296.664 37.2215L296.596 37.0681L296.527 36.9161L296.456 36.7642L296.384 36.6137L296.31 36.4638L296.235 36.3145L296.158 36.1664L296.08 36.0189L296 35.8721L295.919 35.7268L295.836 35.5817L295.753 35.4379L295.667 35.2948L295.58 35.1531L295.492 35.0117L295.403 34.8717L295.311 34.7323L295.219 34.5941L295.126 34.4572L295.03 34.3208L294.934 34.1856L294.836 34.0514L294.737 33.9185L294.637 33.7863L294.535 33.6554L294.432 33.5255L294.328 33.3967L294.223 33.2691L294.116 33.1424L294.008 33.017L293.899 32.8927L293.789 32.7696L293.677 32.6476L293.565 32.5266L293.451 32.4072L293.336 32.2886L293.22 32.1715L293.103 32.0554L292.984 31.9407L292.865 31.8269L292.744 31.7149L292.623 31.6037L292.5 31.4939L292.376 31.3855L292.252 31.2784L292.126 31.1722L291.999 31.0676L291.871 30.9643L291.742 30.8623L291.613 30.7616L291.482 30.6625L291.35 30.5642L291.218 30.4678L291.085 30.3726L290.95 30.2786L290.815 30.1861L290.679 30.0948L290.543 30.0054L290.405 29.9169L290.266 29.83L290.127 29.7444L289.987 29.6603L289.846 29.5777L289.705 29.4967L289.562 29.4166L289.419 29.3385L289.275 29.2615L289.131 29.1861L288.986 29.1123L288.84 29.0398L288.693 28.9687L288.546 28.8993L288.399 28.8312L288.25 28.7648L288.102 28.6997L287.947 28.6342L287.802 28.5743L287.651 28.5136L287.501 28.4548L287.349 28.3971L287.197 28.3413L287.044 28.2869L286.892 28.2341L286.738 28.1826L286.584 28.1329L286.43 28.0846L286.275 28.0379L286.121 27.9928L285.965 27.9492L285.809 27.907L285.653 27.8666L285.497 27.8277L285.34 27.7902L285.184 27.7545L285.026 27.7201L284.869 27.6875L284.711 27.6563L284.554 27.6268L284.395 27.5988L284.237 27.5724L284.079 27.5475L283.92 27.5242L283.762 27.5025L283.603 27.4823L283.444 27.4638L283.285 27.4468L283.126 27.4313L282.967 27.4175L282.808 27.4052L282.649 27.3944L282.49 27.3853L282.331 27.3777L282.171 27.3717L282.013 27.3672L281.854 27.3643L281.695 27.363L281.536 27.3632L281.504 27.3636L281.554 31.595L281.644 31.5945L281.76 31.5952L281.876 31.597L281.993 31.6L282.109 31.6041L282.225 31.6094L282.342 31.6158L282.458 31.6233L282.575 31.6321L282.691 31.6419L282.808 31.653L282.924 31.6652L283.04 31.6786L283.157 31.6931L283.273 31.7087L283.389 31.7256L283.505 31.7436L283.621 31.7627L283.737 31.7831L283.853 31.8046L283.969 31.8273L284.084 31.8511L284.2 31.876L284.315 31.9021L284.43 31.9294L284.545 31.9579L284.66 31.9874L284.774 32.0182L284.888 32.0501L285.002 32.0832L285.116 32.1174L285.23 32.1527L285.343 32.1893L285.456 32.2269L285.569 32.2658L285.681 32.3057L285.793 32.3468L285.904 32.389L286.016 32.4324L286.127 32.4769L286.237 32.5225L286.347 32.5693L286.457 32.6171L286.567 32.6662L286.676 32.7162L286.784 32.7675L286.892 32.8198L287 32.8733L287.107 32.9279L287.214 32.9836L287.32 33.0403L287.426 33.0982L287.531 33.157L287.635 33.2171L287.74 33.2782L287.843 33.3404L287.946 33.4036L288.049 33.4679L288.15 33.5333L288.252 33.5998L288.352 33.6672L288.452 33.7357L288.552 33.8053L288.651 33.8759L288.749 33.9475L288.846 34.0202L288.943 34.0938L289.039 34.1686L289.134 34.2443L289.229 34.3209L289.323 34.3986L289.416 34.4773L289.509 34.5569L289.601 34.6375L289.692 34.7191L289.782 34.8017L289.871 34.8852L289.96 34.9696L290.048 35.055L290.135 35.1413L290.221 35.2286L290.306 35.3168L290.391 35.4058L290.474 35.4958L290.557 35.5867L290.639 35.6785L290.72 35.771L290.8 35.8646L290.88 35.9589L290.958 36.0541L291.035 36.1502L291.112 36.2471L291.187 36.3448L291.262 36.4433L291.336 36.5428L291.408 36.6428L291.48 36.7438L291.55 36.8455L291.62 36.9481L291.689 37.0513L291.757 37.1553L291.823 37.2601L291.889 37.3656L291.953 37.4718L292.017 37.5787L292.079 37.6865L292.141 37.7947L292.201 37.9038L292.26 38.0135L292.319 38.1239L292.376 38.2349L292.432 38.3466L292.487 38.459L292.54 38.5719L292.593 38.6854L292.644 38.7996L292.695 38.9143L292.744 39.0297L292.792 39.1456L292.839 39.262L292.885 39.379L292.929 39.4965L292.973 39.6146L293.015 39.7332L293.056 39.8523L293.096 39.9719L293.134 40.092L293.172 40.2124L293.208 40.3334L293.243 40.4549L293.277 40.5768L293.309 40.6991L293.34 40.8218L293.37 40.9449L293.399 41.0683L293.427 41.1922L293.453 41.3164L293.478 41.4409L293.502 41.5658L293.524 41.6911L293.546 41.8167L293.565 41.9424L293.584 42.0686L293.601 42.195L293.617 42.3216L293.632 42.4486L293.646 42.5758L293.658 42.7031L293.669 42.8307L293.678 42.9585L293.687 43.0865L293.694 43.2146L293.699 43.3429L293.704 43.4714L293.706 43.5999L293.708 43.7287L293.708 43.8575L293.707 43.9864L293.705 44.1154L293.702 44.2445L293.697 44.3736L293.69 44.5027L293.683 44.6319L293.674 44.7612L293.663 44.8904L293.652 45.0196L293.639 45.1488L293.624 45.2779L293.609 45.4071L293.592 45.5361L293.573 45.665L293.553 45.7939L293.532 45.9226L293.51 46.0513L293.486 46.1798L293.461 46.3082L293.435 46.4364L293.407 46.5645L293.378 46.6924L293.348 46.82L293.316 46.9474L293.283 47.0748L293.248 47.2017L293.213 47.3285L293.175 47.4549L293.137 47.5811L293.097 47.7071L293.056 47.8328L293.014 47.958L292.97 48.083L292.925 48.2076L292.879 48.3318L292.831 48.4557L292.782 48.5792L292.732 48.7024L292.68 48.8251L292.627 48.9473L292.573 49.0692L292.518 49.1907L292.461 49.3116L292.403 49.432L292.343 49.552L292.283 49.6715L292.221 49.7905L292.158 49.9088L292.093 50.0267L292.028 50.1441L291.961 50.2609L291.893 50.377L291.823 50.4927L291.753 50.6076L291.681 50.7221L291.608 50.8358L291.533 50.9489L291.458 51.0613L291.381 51.1731L291.303 51.2842L291.224 51.3946L291.144 51.5043L291.062 51.6134L290.979 51.7216L290.895 51.8291L290.81 51.9358L290.724 52.0419L290.637 52.1471L290.548 52.2516L290.459 52.3552L290.368 52.458L290.276 52.56L290.183 52.6612L290.089 52.7615L289.994 52.861L289.898 52.9595L289.8 53.0573L289.702 53.1541L289.602 53.25L289.502 53.345L289.4 53.439L289.298 53.5322L289.194 53.6243L289.089 53.7156L288.983 53.8059L288.877 53.8951L288.769 53.9835L288.661 54.0707L288.551 54.1569L288.44 54.2422L288.329 54.3264L288.216 54.4096L288.103 54.4917L287.989 54.5729L287.873 54.6528L287.757 54.7317L287.64 54.8095L287.522 54.8863L287.403 54.9619L287.284 55.0364L287.163 55.1097L287.042 55.182L286.92 55.253L286.797 55.3229L286.673 55.3916L286.549 55.4593L286.423 55.5257L286.297 55.5909L286.17 55.6549L286.043 55.7177L285.914 55.7793L285.785 55.8397L285.656 55.8988L285.525 55.9567L285.394 56.0134L285.262 56.0687L285.13 56.1229L284.997 56.1758L284.863 56.2274L284.729 56.2777L284.594 56.3268L284.458 56.3745L284.322 56.4209L284.186 56.466L284.048 56.5098L283.911 56.5523L283.772 56.5935L283.633 56.6332L283.494 56.6717L283.354 56.7088L283.214 56.7446L283.073 56.779L282.932 56.8121L282.791 56.8438L282.649 56.8741L282.506 56.903L282.363 56.9306L282.22 56.9568L282.077 56.9816L281.933 57.005L281.789 57.0269L281.644 57.0475L281.499 57.0666L281.354 57.0844L281.209 57.1007L281.063 57.1157L280.917 57.1292L280.771 57.1412L280.624 57.1519L280.478 57.161L280.331 57.1688L280.184 57.1751L280.037 57.18L279.89 57.1834L279.743 57.1854L279.595 57.186L279.447 57.1851L279.3 57.1826L279.152 57.1789L279.004 57.1736L278.856 57.1668L278.709 57.1586L278.561 57.149L278.413 57.1379L278.265 57.1253L278.117 57.1112L277.969 57.0957L277.822 57.0788L277.674 57.0604L277.527 57.0405L277.379 57.0191L277.232 56.9963L277.085 56.9721L276.938 56.9463L276.791 56.9192L276.645 56.8905L276.498 56.8603L276.352 56.8287L276.206 56.7957L276.06 56.7612L275.915 56.7252L275.77 56.6878L275.625 56.6489L275.48 56.6086L275.336 56.5669L275.192 56.5237L275.049 56.4791L274.905 56.4329L274.763 56.3854L274.62 56.3365L274.478 56.2861L274.337 56.2343L274.196 56.1811L274.055 56.1264L273.915 56.0704L273.775 56.0128L273.636 55.9539L273.497 55.8937L273.359 55.8319L273.222 55.7688L273.085 55.7044L272.948 55.6385L272.813 55.5712L272.677 55.5026L272.543 55.4326L272.409 55.3612L272.276 55.2885L272.143 55.2144L272.011 55.1389L271.88 55.0622L271.749 54.984L271.619 54.9045L271.49 54.8238L271.362 54.7417L271.234 54.6583L271.108 54.5735L270.982 54.4875L270.856 54.4003L270.732 54.3117L270.609 54.2218L270.486 54.1307L270.364 54.0383L270.243 53.9446L270.123 53.8497L270.004 53.7535L269.886 53.6562L269.768 53.5576L269.652 53.4578L269.537 53.3568L269.422 53.2546L269.309 53.1512L269.196 53.0467L269.085 52.9409L268.974 52.834L268.865 52.726L268.757 52.6168L268.65 52.5064L268.543 52.3951L268.438 52.2825L268.334 52.1689L268.231 52.0541L268.129 51.9383L268.029 51.8214L267.929 51.7035L267.831 51.5845L267.733 51.4644L267.637 51.3434L267.543 51.2212L267.449 51.0981L267.357 50.974L267.265 50.8491L267.175 50.723L267.087 50.596L266.999 50.468L266.913 50.3391L266.828 50.2094L266.744 50.0786L266.662 49.947L266.581 49.8145L266.501 49.6811L266.422 49.5469L266.345 49.4118L266.269 49.2759L266.195 49.1391L266.122 49.0016L266.05 48.8632L265.98 48.7241L265.911 48.5841L265.844 48.4434L265.777 48.302L265.713 48.1598L265.649 48.017L265.588 47.8734L265.527 47.729L265.468 47.5841L265.411 47.4385L265.355 47.2922L265.3 47.1453L265.247 46.9978L265.195 46.8496L265.145 46.7009L265.097 46.5516L265.05 46.4017L265.004 46.2513L264.96 46.1003L264.917 45.9489L264.876 45.7969L264.837 45.6443L264.799 45.4914L264.763 45.338L264.728 45.1841L264.695 45.0298L264.663 44.8751L264.633 44.72L264.604 44.5645L264.577 44.4086L264.552 44.2524L264.528 44.0959L264.506 43.939L264.485 43.7818L264.466 43.6243L264.449 43.4665L264.433 43.3085L264.419 43.1502L264.406 42.9917L264.396 42.8331L264.386 42.6741L264.379 42.515L264.373 42.3558L264.368 42.1964L264.365 42.0369L264.364 41.8771L264.365 41.7174L264.367 41.5575L264.371 41.3977L264.376 41.2377L264.383 41.0776L264.392 40.9176L264.402 40.7576L264.414 40.5976L264.428 40.4375L264.443 40.2776L264.46 40.1177L264.479 39.9579L264.499 39.7982L264.521 39.6385L264.545 39.479L264.57 39.3197L264.597 39.1605L264.626 39.0015L264.656 38.8427L264.688 38.684L264.721 38.5257L264.756 38.3675L264.793 38.2097L264.832 38.052L264.872 37.8947L264.913 37.7377L264.957 37.581L265.002 37.4246L265.048 37.2687L265.097 37.113L265.147 36.9577L265.198 36.8029L265.251 36.6485L265.306 36.4945L265.362 36.3409L265.42 36.1878L265.48 36.0353L265.541 35.8832L265.604 35.7316L265.668 35.5806L265.734 35.4301L265.802 35.2802L265.871 35.1308L265.941 34.982L266.014 34.8339L266.087 34.6864L266.163 34.5395L266.24 34.3934L266.318 34.2478L266.398 34.103L266.48 33.9589L266.563 33.8154L266.647 33.6728L266.733 33.5309L266.821 33.3898L266.91 33.2494L267 33.1098L267.093 32.9711L267.186 32.8331L267.281 32.6961L267.378 32.5598L267.475 32.4244L267.575 32.29L267.676 32.1564L267.778 32.0238L267.881 31.892L267.987 31.7613L268.093 31.6315L268.201 31.5027L268.31 31.3748L268.421 31.2479L268.533 31.1222L268.646 30.9974L268.76 30.8736L268.877 30.751L268.994 30.6293L269.112 30.5089L269.232 30.3894L269.354 30.2711L269.476 30.1539L269.6 30.0378L269.725 29.923L269.851 29.8092L269.979 29.6967L270.107 29.5853L270.237 29.4752L270.368 29.3663L270.501 29.2585L270.634 29.152L270.769 29.0469L270.905 28.9429L271.042 28.8403L271.18 28.7389L271.319 28.6388L271.459 28.5401L271.601 28.4426L271.743 28.3466L271.887 28.2519L272.032 28.1585L272.177 28.0665L272.324 27.9758L272.471 27.8866L272.62 27.7988L272.77 27.7123L272.92 27.6273L273.072 27.5438L273.224 27.4617L273.378 27.381L273.532 27.3018L273.687 27.2241L273.843 27.1478L274 27.0731L274.158 26.9998L274.317 26.9281L274.476 26.8579L274.637 26.7892L274.798 26.7221L274.96 26.6565L275.122 26.5924L275.286 26.5299L275.45 26.469L275.615 26.4097L275.78 26.352L275.946 26.2958L276.113 26.2413L276.28 26.1883L276.449 26.137L276.617 26.0873L276.787 26.0393L276.956 25.9928L277.127 25.948L277.298 25.9049L277.47 25.8634L277.642 25.8236L277.814 25.7855L277.987 25.749L278.161 25.7142L278.335 25.6812L278.509 25.6497L278.684 25.62L278.859 25.592L279.035 25.5657L279.211 25.5411L279.387 25.5182L279.453 25.5104ZM279.527 31.7864L279.476 27.5085L279.332 27.5287L279.177 27.552L279.021 27.5768L278.867 27.6031L278.712 27.6309L278.558 27.6602L278.405 27.691L278.252 27.7232L278.099 27.757L277.947 27.7922L277.795 27.8289L277.644 27.8671L277.492 27.9067L277.347 27.9463L277.193 27.9903L277.043 28.0342L276.895 28.0796L276.747 28.1264L276.599 28.1746L276.452 28.2243L276.306 28.2754L276.16 28.3277L276.015 28.3816L275.871 28.4368L275.727 28.4935L275.584 28.5514L275.442 28.6108L275.3 28.6715L275.159 28.7335L275.019 28.7968L274.88 28.8616L274.741 28.9276L274.603 28.9948L274.466 29.0636L274.33 29.1334L274.194 29.2049L274.06 29.2771L273.925 29.3512L273.793 29.426L273.661 29.5023L273.529 29.5799L273.399 29.6586L273.269 29.7388L273.141 29.8198L273.013 29.9023L272.887 29.9859L272.761 30.0706L272.636 30.1566L272.512 30.2438L272.39 30.3318L272.268 30.4214L272.147 30.512L272.027 30.6036L271.909 30.6963L271.791 30.7903L271.674 30.8851L271.559 30.9811L271.444 31.0784L271.331 31.1764L271.218 31.2757L271.107 31.376L270.997 31.4772L270.888 31.5794L270.78 31.6828L270.673 31.7868L270.567 31.892L270.463 31.9983L270.359 32.1053L270.257 32.2135L270.156 32.3224L270.057 32.4323L269.958 32.5431L269.86 32.6549L269.764 32.7673L269.669 32.8807L269.576 32.9951L269.483 33.1101L269.392 33.2259L269.302 33.3428L269.213 33.4603L269.126 33.5786L269.04 33.6977L268.955 33.8176L268.871 33.9381L268.789 34.0594L268.708 34.1815L268.628 34.3043L268.55 34.4276L268.473 34.5517L268.397 34.6767L268.323 34.802L268.25 34.9281L268.178 35.0549L268.108 35.182L268.039 35.3099L267.971 35.4386L267.905 35.5674L267.841 35.6972L267.777 35.8274L267.715 35.9579L267.654 36.0892L267.595 36.2208L267.537 36.353L267.481 36.4856L267.425 36.6187L267.372 36.7522L267.319 36.8863L267.269 37.0207L267.219 37.1554L267.171 37.2907L267.124 37.4261L267.079 37.562L267.035 37.6983L266.993 37.8349L266.952 37.9718L266.913 38.1089L266.875 38.2463L266.838 38.3841L266.803 38.5221L266.769 38.6603L266.737 38.7988L266.706 38.9374L266.677 39.0764L266.649 39.2154L266.622 39.3546L266.597 39.4941L266.574 39.6336L266.552 39.7733L266.531 39.9129L266.512 40.0528L266.494 40.1927L266.478 40.3328L266.463 40.4728L266.449 40.613L266.437 40.7531L266.427 40.8932L266.418 41.0334L266.41 41.1736L266.404 41.3136L266.399 41.4537L266.396 41.5936L266.394 41.7335L266.393 41.8735L266.394 42.0132L266.397 42.1528L266.401 42.2923L266.406 42.4315L266.413 42.5708L266.421 42.7099L266.43 42.8486L266.441 42.9873L266.454 43.1257L266.467 43.2638L266.483 43.4018L266.499 43.5395L266.517 43.677L266.537 43.814L266.557 43.951L266.58 44.0874L266.603 44.2236L266.628 44.3596L266.654 44.495L266.682 44.6303L266.711 44.765L266.742 44.8995L266.773 45.0333L266.806 45.167L266.841 45.3001L266.877 45.4329L266.914 45.5651L266.952 45.6969L266.992 45.8282L267.033 45.9591L267.076 46.0895L267.119 46.2192L267.164 46.3484L267.211 46.4772L267.258 46.6054L267.307 46.733L267.357 46.86L267.409 46.9864L267.461 47.1123L267.515 47.2375L267.571 47.362L267.627 47.486L267.685 47.6092L267.744 47.7319L267.804 47.8539L267.865 47.9751L267.927 48.0958L267.991 48.2157L268.056 48.3348L268.122 48.4533L268.189 48.5709L268.257 48.6879L268.327 48.804L268.397 48.9194L268.469 49.034L268.542 49.1478L268.616 49.261L268.691 49.373L268.767 49.4845L268.845 49.595L268.923 49.7047L269.002 49.8135L269.083 49.9214L269.164 50.0285L269.247 50.1348L269.33 50.2401L269.415 50.3445L269.5 50.448L269.587 50.5506L269.675 50.6521L269.763 50.753L269.853 50.8526L269.943 50.9515L270.034 51.0492L270.127 51.1461L270.22 51.2419L270.314 51.3368L270.409 51.4307L270.505 51.5236L270.602 51.6155L270.7 51.7062L270.798 51.7961L270.897 51.8848L270.998 51.9725L271.099 52.0592L271.201 52.1448L271.303 52.2293L271.407 52.3127L271.511 52.3951L271.616 52.4763L271.721 52.5566L271.828 52.6356L271.935 52.7136L272.043 52.7904L272.151 52.8661L272.261 52.9407L272.371 53.0142L272.481 53.0865L272.593 53.1577L272.704 53.2278L272.817 53.2966L272.93 53.3644L273.044 53.4309L273.158 53.4962L273.273 53.5605L273.389 53.6234L273.505 53.6853L273.621 53.746L273.738 53.8053L273.856 53.8637L273.974 53.9207L274.093 53.9766L274.212 54.0312L274.331 54.0846L274.451 54.1368L274.572 54.1877L274.693 54.2375L274.814 54.286L274.936 54.3333L275.058 54.3793L275.18 54.4242L275.303 54.4678L275.426 54.5101L275.55 54.5513L275.673 54.591L275.797 54.6297L275.922 54.667L276.046 54.7031L276.171 54.7379L276.297 54.7715L276.422 54.8039L276.548 54.8349L276.674 54.8647L276.8 54.8932L276.926 54.9206L277.052 54.9466L277.179 54.9713L277.306 54.9948L277.433 55.017L277.56 55.038L277.687 55.0576L277.814 55.0761L277.941 55.0933L278.069 55.1092L278.196 55.1238L278.323 55.1372L278.451 55.1493L278.578 55.1602L278.706 55.1697L278.833 55.1781L278.961 55.1851L279.088 55.1909L279.216 55.1955L279.343 55.1988L279.47 55.2008L279.598 55.2016L279.725 55.2011L279.852 55.1993L279.979 55.1965L280.105 55.1923L280.232 55.1868L280.358 55.1801L280.484 55.1722L280.61 55.163L280.736 55.1526L280.862 55.141L280.987 55.1282L281.112 55.1141L281.237 55.0988L281.362 55.0823L281.486 55.0647L281.61 55.0458L281.734 55.0257L281.857 55.0044L281.981 54.9818L282.103 54.9581L282.226 54.9333L282.348 54.9072L282.47 54.88L282.591 54.8516L282.712 54.8219L282.832 54.7913L282.953 54.7594L283.072 54.7263L283.191 54.6921L283.31 54.6568L283.428 54.6204L283.546 54.5827L283.664 54.544L283.78 54.5041L283.897 54.4632L284.013 54.4211L284.128 54.3779L284.243 54.3336L284.357 54.2882L284.47 54.2417L284.583 54.1942L284.696 54.1456L284.808 54.0961L284.919 54.0453L285.03 53.9935L285.14 53.9407L285.249 53.887L285.358 53.832L285.466 53.7762L285.573 53.7192L285.68 53.6614L285.786 53.6025L285.891 53.5426L285.996 53.4817L286.1 53.4199L286.203 53.3571L286.305 53.2933L286.407 53.2286L286.508 53.163L286.608 53.0964L286.707 53.0287L286.806 52.9603L286.904 52.8911L287.001 52.8207L287.097 52.7498L287.192 52.6777L287.287 52.6047L287.38 52.5311L287.473 52.4564L287.566 52.3809L287.656 52.3047L287.747 52.2273L287.836 52.1495L287.925 52.0709L288.013 51.9911L288.099 51.9109L288.185 51.8298L288.27 51.7479L288.354 51.6653L288.437 51.5818L288.519 51.4977L288.601 51.4128L288.681 51.3272L288.76 51.2408L288.839 51.1538L288.916 51.0663L288.993 50.9777L289.068 50.8887L289.142 50.799L289.216 50.7085L289.288 50.6177L289.36 50.5259L289.43 50.4337L289.5 50.3407L289.568 50.2473L289.636 50.1534L289.702 50.0585L289.768 49.9634L289.832 49.8676L289.895 49.7712L289.957 49.6746L290.019 49.5772L290.079 49.4792L290.138 49.3809L290.196 49.282L290.253 49.1825L290.309 49.083L290.364 48.9824L290.417 48.8818L290.47 48.7807L290.521 48.6789L290.572 48.5773L290.621 48.4745L290.669 48.3721L290.717 48.2686L290.762 48.1653L290.807 48.0611L290.851 47.9571L290.894 47.8526L290.936 47.7476L290.976 47.6423L291.015 47.5371L291.054 47.4311L291.091 47.3251L291.127 47.2188L291.161 47.1122L291.195 47.0052L291.228 46.8982L291.259 46.791L291.29 46.6834L291.319 46.5758L291.347 46.4679L291.374 46.3598L291.4 46.2518L291.424 46.1432L291.448 46.0347L291.47 45.9261L291.491 45.8175L291.512 45.7086L291.53 45.5994L291.548 45.4906L291.565 45.3814L291.58 45.2721L291.595 45.1631L291.608 45.0538L291.62 44.9442L291.631 44.8354L291.641 44.7257L291.65 44.6164L291.658 44.5074L291.664 44.398L291.669 44.2888L291.674 44.1798L291.677 44.0704L291.679 43.9617L291.679 43.8526L291.679 43.7437L291.678 43.6349L291.675 43.5265L291.672 43.4179L291.667 43.3095L291.661 43.2016L291.654 43.0933L291.646 42.9854L291.637 42.878L291.627 42.7703L291.615 42.6632L291.603 42.556L291.589 42.4492L291.575 42.3426L291.559 42.2361L291.542 42.1301L291.524 42.0244L291.505 41.9189L291.485 41.8137L291.464 41.7084L291.442 41.6039L291.419 41.4997L291.395 41.3957L291.369 41.2918L291.343 41.1889L291.315 41.0856L291.287 40.9832L291.258 40.8809L291.227 40.7793L291.196 40.6777L291.163 40.5767L291.13 40.4763L291.095 40.3762L291.06 40.2762L291.023 40.1771L290.986 40.0783L290.947 39.9801L290.908 39.8821L290.868 39.7846L290.826 39.6879L290.784 39.5914L290.741 39.4956L290.697 39.4004L290.651 39.3054L290.605 39.211L290.558 39.1174L290.51 39.0241L290.462 38.9317L290.412 38.8398L290.361 38.748L290.31 38.6574L290.257 38.567L290.204 38.4775L290.15 38.3882L290.095 38.3L290.039 38.212L289.983 38.125L289.925 38.0385L289.867 37.9527L289.807 37.8674L289.747 37.7829L289.687 37.6992L289.625 37.6158L289.563 37.5335L289.499 37.4517L289.435 37.3707L289.371 37.2902L289.305 37.2107L289.239 37.1317L289.172 37.0534L289.104 36.9762L289.035 36.8993L288.966 36.8235L288.896 36.7482L288.826 36.6741L288.755 36.6002L288.683 36.5275L288.61 36.4552L288.537 36.384L288.463 36.3136L288.388 36.2439L288.313 36.1749L288.237 36.1069L288.16 36.0397L288.083 35.9731L288.005 35.9078L287.927 35.8428L287.848 35.7789L287.769 35.7159L287.688 35.6535L287.608 35.5921L287.527 35.5318L287.445 35.472L287.362 35.413L287.28 35.3553L287.196 35.2981L287.113 35.2422L287.029 35.1868L286.944 35.1324L286.859 35.0788L286.773 35.0263L286.687 34.9745L286.6 34.9238L286.513 34.8738L286.426 34.8249L286.338 34.7769L286.25 34.7296L286.161 34.6833L286.072 34.6382L285.983 34.5937L285.893 34.5502L285.803 34.5077L285.713 34.4661L285.621 34.4253L285.531 34.3857L285.439 34.3469L285.347 34.3089L285.255 34.2721L285.163 34.2362L285.071 34.2012L284.977 34.167L284.885 34.134L284.791 34.1018L284.697 34.0706L284.604 34.0404L284.51 34.0111L284.416 33.9828L284.321 33.9553L284.227 33.929L284.132 33.9035L284.037 33.8791L283.942 33.8555L283.847 33.8329L283.752 33.8113L283.656 33.7907L283.561 33.771L283.465 33.7522L283.37 33.7346L283.274 33.7178L283.178 33.7019L283.082 33.687L282.986 33.6732L282.89 33.6601L282.794 33.6482L282.698 33.6372L282.602 33.6271L282.506 33.618L282.409 33.6098L282.314 33.6026L282.217 33.5964L282.121 33.5911L282.026 33.5868L281.929 33.5834L281.834 33.5809L281.738 33.5795L281.643 33.5789L281.577 33.5792L281.627 37.7588L281.656 37.7589L281.711 37.7596L281.766 37.761L281.822 37.7627L281.877 37.7653L281.932 37.7683L281.987 37.7718L282.043 37.776L282.098 37.7808L282.153 37.7861L282.209 37.792L282.264 37.7984L282.32 37.8055L282.375 37.8131L282.431 37.8213L282.486 37.8302L282.542 37.8396L282.597 37.8495L282.653 37.8602L282.709 37.8712L282.764 37.8831L282.819 37.8954L282.875 37.9083L282.93 37.9218L282.986 37.9359L283.041 37.9506L283.096 37.9659L283.151 37.9817L283.206 37.9982L283.261 38.0153L283.316 38.033L283.371 38.0512L283.425 38.0701L283.48 38.0894L283.534 38.1095L283.588 38.1301L283.642 38.1512L283.696 38.173L283.75 38.1954L283.804 38.2183L283.858 38.2419L283.911 38.266L283.964 38.2907L284.017 38.316L284.07 38.3418L284.123 38.3683L284.175 38.3954L284.227 38.423L284.279 38.4512L284.331 38.48L284.383 38.5093L284.434 38.5392L284.485 38.5697L284.536 38.6008L284.587 38.6324L284.637 38.6647L284.687 38.6973L284.737 38.7306L284.786 38.7646L284.836 38.7991L284.885 38.834L284.933 38.8696L284.982 38.9057L285.03 38.9423L285.078 38.9795L285.125 39.0173L285.172 39.0556L285.219 39.0943L285.265 39.1337L285.311 39.1736L285.357 39.214L285.402 39.2549L285.447 39.2965L285.492 39.3384L285.536 39.3809L285.58 39.424L285.624 39.4675L285.667 39.5116L285.709 39.5561L285.752 39.6011L285.793 39.6467L285.835 39.6928L285.876 39.7393L285.916 39.7863L285.956 39.8338L285.996 39.8818L286.035 39.9303L286.074 39.9792L286.112 40.0286L286.15 40.0785L286.188 40.1287L286.225 40.1796L286.261 40.2307L286.297 40.2824L286.332 40.3345L286.367 40.3871L286.402 40.44L286.436 40.4935L286.469 40.5473L286.502 40.6016L286.534 40.6563L286.566 40.7113L286.597 40.7667L286.628 40.8226L286.658 40.8789L286.688 40.9356L286.717 40.9926L286.745 41.0499L286.773 41.1077L286.801 41.1659L286.827 41.2244L286.854 41.2833L286.879 41.3425L286.904 41.4021L286.929 41.462L286.953 41.5222L286.976 41.5828L286.998 41.6436L287.021 41.7049L287.042 41.7664L287.063 41.8282L287.083 41.8903L287.102 41.9527L287.121 42.0154L287.14 42.0784L287.157 42.1417L287.174 42.2051L287.191 42.2689L287.206 42.333L287.221 42.3973L287.236 42.4618L287.249 42.5266L287.262 42.5916L287.275 42.6567L287.286 42.7222L287.298 42.7879L287.308 42.8537L287.318 42.9197L287.327 42.986L287.335 43.0524L287.342 43.119L287.349 43.1858L287.356 43.2526L287.361 43.3197L287.366 43.387L287.37 43.4543L287.374 43.5219L287.376 43.5895L287.378 43.6573L287.38 43.7251L287.38 43.7931L287.38 43.8611L287.379 43.9293L287.378 43.9976L287.375 44.0659L287.372 44.1343L287.369 44.2027L287.364 44.2712L287.359 44.3398L287.353 44.4084L287.346 44.477L287.339 44.5457L287.331 44.6143L287.322 44.6831L287.312 44.7518L287.302 44.8205L287.291 44.8891L287.279 44.9577L287.267 45.0264L287.253 45.095L287.24 45.1635L287.225 45.2321L287.209 45.3005L287.193 45.3689L287.176 45.4372L287.158 45.5055L287.14 45.5736L287.121 45.6417L287.101 45.7095L287.08 45.7774L287.059 45.8451L287.036 45.9127L287.014 45.9802L286.99 46.0475L286.966 46.1146L286.94 46.1817L286.915 46.2484L286.888 46.3152L286.861 46.3816L286.833 46.4479L286.804 46.514L286.774 46.58L286.744 46.6457L286.713 46.7111L286.681 46.7764L286.649 46.8414L286.616 46.9062L286.582 46.9707L286.547 47.0349L286.512 47.0989L286.476 47.1627L286.439 47.2261L286.402 47.2893L286.364 47.3521L286.325 47.4147L286.285 47.477L286.245 47.5388L286.204 47.6005L286.162 47.6617L286.12 47.7227L286.077 47.7833L286.033 47.8435L285.988 47.9034L285.943 47.9628L285.897 48.022L285.851 48.0807L285.804 48.1391L285.756 48.197L285.707 48.2546L285.658 48.3117L285.608 48.3684L285.558 48.4246L285.507 48.4805L285.455 48.5359L285.403 48.5908L285.349 48.6453L285.296 48.6994L285.241 48.7528L285.186 48.806L285.131 48.8586L285.075 48.9106L285.018 48.9622L284.96 49.0133L284.902 49.0639L284.844 49.114L284.784 49.1634L284.724 49.2125L284.664 49.261L284.603 49.3088L284.541 49.3562L284.479 49.403L284.417 49.4493L284.353 49.4949L284.29 49.54L284.225 49.5846L284.16 49.6284L284.095 49.6718L284.029 49.7144L283.962 49.7566L283.895 49.7981L283.828 49.839L283.76 49.8792L283.691 49.9188L283.622 49.9578L283.552 49.9961L283.482 50.0338L283.412 50.0708L283.341 50.1072L283.269 50.1429L283.198 50.178L283.125 50.2123L283.052 50.2459L282.979 50.2789L282.905 50.3111L282.831 50.3428L282.757 50.3737L282.682 50.4038L282.606 50.4332L282.531 50.462L282.455 50.49L282.378 50.5174L282.301 50.5439L282.224 50.5697L282.146 50.5949L282.068 50.6191L281.99 50.6427L281.911 50.6656L281.833 50.6876L281.753 50.709L281.674 50.7295L281.594 50.7493L281.513 50.7682L281.433 50.7865L281.352 50.8039L281.271 50.8206L281.19 50.8364L281.108 50.8515L281.026 50.8658L280.944 50.8793L280.862 50.8919L280.779 50.9037L280.697 50.9148L280.614 50.9251L280.531 50.9345L280.447 50.943L280.364 50.9509L280.28 50.9578L280.196 50.964L280.112 50.9692L280.028 50.9737L279.943 50.9774L279.859 50.9801L279.774 50.982L279.689 50.9831L279.605 50.9834L279.52 50.9829L279.435 50.9815L279.35 50.9791L279.264 50.976L279.179 50.972L279.094 50.9672L279.009 50.9615L278.923 50.955L278.838 50.9476L278.752 50.9393L278.667 50.9302L278.582 50.9201L278.496 50.9093L278.411 50.8975L278.325 50.885L278.24 50.8715L278.155 50.8572L278.07 50.8421L277.984 50.826L277.899 50.8092L277.814 50.7914L277.729 50.7728L277.645 50.7532L277.56 50.7328L277.475 50.7117L277.391 50.6895L277.306 50.6665L277.222 50.6427L277.138 50.618L277.054 50.5924L276.971 50.566L276.887 50.5387L276.804 50.5106L276.721 50.4816L276.638 50.4517L276.555 50.421L276.473 50.3894L276.391 50.357L276.309 50.3236L276.227 50.2895L276.146 50.2546L276.064 50.2187L275.983 50.182L275.903 50.1445L275.823 50.1061L275.743 50.0669L275.663 50.0268L275.584 49.986L275.505 49.9443L275.426 49.9017L275.348 49.8583L275.27 49.8142L275.193 49.7691L275.116 49.7233L275.039 49.6767L274.963 49.6292L274.887 49.5809L274.811 49.5319L274.736 49.4819L274.661 49.4312L274.587 49.3798L274.514 49.3275L274.44 49.2745L274.368 49.2206L274.295 49.166L274.224 49.1106L274.152 49.0544L274.082 48.9975L274.011 48.9398L273.942 48.8814L273.872 48.8221L273.804 48.7621L273.736 48.7015L273.668 48.64L273.601 48.5778L273.535 48.5149L273.469 48.4513L273.404 48.387L273.339 48.3219L273.275 48.2561L273.212 48.1896L273.149 48.1225L273.087 48.0545L273.025 47.986L272.964 47.9168L272.904 47.8468L272.845 47.7763L272.786 47.705L272.728 47.633L272.67 47.5605L272.613 47.4874L272.557 47.4135L272.502 47.339L272.447 47.264L272.394 47.1882L272.34 47.1118L272.288 47.0349L272.236 46.9574L272.185 46.8793L272.135 46.8005L272.086 46.7213L272.037 46.6415L271.989 46.561L271.942 46.48L271.896 46.3985L271.85 46.3164L271.805 46.2338L271.762 46.1507L271.719 46.067L271.676 45.9829L271.635 45.8983L271.594 45.813L271.555 45.7275L271.516 45.6413L271.478 45.5548L271.441 45.4676L271.404 45.3802L271.369 45.2922L271.334 45.2038L271.301 45.1149L271.268 45.0257L271.236 44.936L271.205 44.846L271.175 44.7556L271.146 44.6647L271.118 44.5735L271.09 44.4819L271.064 44.3899L271.038 44.2976L271.014 44.2049L270.99 44.1119L270.968 44.0186L270.946 43.9251L270.925 43.8311L270.905 43.7369L270.886 43.6423L270.869 43.5476L270.852 43.4525L270.836 43.3571L270.821 43.2616L270.807 43.1657L270.794 43.0698L270.782 42.9734L270.771 42.877L270.761 42.7803L270.751 42.6834L270.743 42.5863L270.736 42.4891L270.73 42.3917L270.725 42.2941L270.721 42.1965L270.718 42.0986L270.716 42.0007L270.715 41.9027L270.715 41.8045L270.716 41.7062L270.718 41.6079L270.721 41.5095L270.725 41.4109L270.73 41.3124L270.736 41.2139L270.743 41.1152L270.751 41.0166L270.761 40.918L270.771 40.8193L270.782 40.7207L270.794 40.622L270.808 40.5235L270.822 40.425L270.837 40.3265L270.854 40.228L270.871 40.1296L270.89 40.0313L270.909 39.9331L270.93 39.835L270.952 39.7371L270.974 39.6392L270.998 39.5416L271.023 39.4439L271.048 39.3465L271.075 39.2493L271.103 39.1522L271.132 39.0552L271.162 38.9586L271.192 38.862L271.224 38.7657L271.257 38.6698L271.291 38.5739L271.326 38.4783L271.362 38.383L271.399 38.288L271.437 38.1933L271.477 38.0987L271.517 38.0046L271.558 37.9108L271.6 37.8172L271.643 37.724L271.687 37.6311L271.732 37.5387L271.778 37.4465L271.825 37.3547L271.874 37.2633L271.923 37.1723L271.973 37.0818L272.024 36.9916L272.076 36.9018L272.129 36.8126L272.183 36.7237L272.238 36.6352L272.294 36.5473L272.351 36.4597L272.408 36.3727L272.467 36.2863L272.527 36.2002L272.588 36.1148L272.649 36.0299L272.712 35.9454L272.775 35.8615L272.84 35.7782L272.905 35.6954L272.971 35.6133L273.039 35.5316L273.107 35.4507L273.176 35.3702L273.245 35.2903L273.316 35.2112L273.388 35.1326L273.46 35.0548L273.534 34.9775L273.608 34.9009L273.683 34.8249L273.759 34.7497L273.836 34.675L273.913 34.6012L273.992 34.528L274.071 34.4555L274.151 34.3838L274.232 34.3127L274.314 34.2425L274.396 34.1729L274.48 34.1041L274.564 34.0362L274.649 33.9689L274.734 33.9024L274.821 33.8368L274.908 33.7719L274.996 33.7078L275.084 33.6446L275.174 33.5822L275.264 33.5205L275.355 33.4597L275.446 33.3998L275.538 33.3408L275.631 33.2826L275.725 33.2252L275.819 33.1688L275.914 33.1132L276.01 33.0585L276.106 33.0047L276.203 32.9518L276.3 32.8999L276.399 32.8488L276.497 32.7987L276.597 32.7495L276.697 32.7013L276.797 32.654L276.898 32.6076L277 32.5622L277.102 32.5178L277.205 32.4743L277.308 32.4318L277.412 32.3904L277.516 32.3499L277.621 32.3104L277.726 32.2718L277.832 32.2344L277.939 32.1979L278.045 32.1625L278.153 32.128L278.26 32.0946L278.368 32.0623L278.477 32.0309L278.586 32.0007L278.695 31.9715L278.805 31.9433L278.915 31.9161L279.025 31.8901L279.136 31.8652L279.248 31.8413L279.359 31.8185L279.471 31.7968L279.527 31.7864ZM280.902 39.824L279.626 40.1289L279.551 33.8081L279.491 33.8216L279.4 33.843L279.31 33.8652L279.22 33.8883L279.13 33.9122L279.041 33.937L278.952 33.9628L278.864 33.9891L278.775 34.0166L278.688 34.0446L278.601 34.0737L278.514 34.1036L278.427 34.1342L278.341 34.1657L278.255 34.1979L278.17 34.2311L278.085 34.265L278.001 34.2996L277.916 34.3353L277.833 34.3714L277.75 34.4086L277.668 34.4463L277.586 34.4851L277.504 34.5244L277.423 34.5646L277.342 34.6054L277.262 34.647L277.183 34.6894L277.104 34.7325L277.025 34.7763L276.948 34.821L276.87 34.8661L276.793 34.9123L276.717 34.9589L276.642 35.0063L276.567 35.0543L276.492 35.1031L276.418 35.1526L276.345 35.2028L276.272 35.2535L276.2 35.3049L276.129 35.357L276.058 35.4098L275.987 35.4632L275.918 35.5172L275.849 35.5717L275.781 35.6269L275.713 35.6828L275.646 35.7394L275.58 35.7963L275.514 35.854L275.449 35.9121L275.385 35.9709L275.321 36.0303L275.258 36.0902L275.196 36.1505L275.134 36.2116L275.074 36.2731L275.013 36.3352L274.954 36.3976L274.895 36.461L274.837 36.5244L274.78 36.5885L274.724 36.6531L274.668 36.718L274.613 36.7837L274.559 36.8494L274.505 36.9161L274.452 36.9828L274.4 37.0502L274.349 37.1181L274.298 37.1862L274.249 37.2547L274.2 37.3237L274.151 37.3932L274.104 37.4629L274.057 37.5332L274.011 37.6037L273.966 37.6745L273.922 37.7459L273.879 37.8174L273.836 37.8896L273.794 37.9617L273.753 38.0344L273.712 38.1074L273.673 38.1805L273.634 38.2541L273.596 38.3279L273.559 38.4022L273.523 38.4764L273.487 38.5512L273.453 38.626L273.419 38.7012L273.386 38.7766L273.354 38.8523L273.322 38.928L273.292 39.0042L273.262 39.0805L273.233 39.157L273.205 39.2335L273.178 39.3104L273.151 39.3875L273.126 39.4646L273.101 39.5419L273.077 39.6195L273.054 39.6971L273.032 39.7747L273.01 39.8526L272.99 39.9307L272.97 40.0087L272.951 40.0869L272.933 40.1652L272.916 40.2435L272.899 40.322L272.884 40.4004L272.869 40.4789L272.855 40.5576L272.842 40.6361L272.829 40.7147L272.818 40.7935L272.807 40.872L272.797 40.9508L272.789 41.0293L272.78 41.108L272.773 41.1869L272.766 41.2654L272.761 41.344L272.756 41.4226L272.752 41.5009L272.749 41.5793L272.746 41.6576L272.745 41.736L272.744 41.8141L272.744 41.8922L272.745 41.9701L272.746 42.0481L272.749 42.1258L272.752 42.2034L272.756 42.2809L272.761 42.3581L272.766 42.4353L272.773 42.5124L272.78 42.5892L272.788 42.666L272.797 42.7423L272.806 42.8188L272.817 42.8947L272.828 42.9708L272.84 43.0464L272.852 43.1219L272.866 43.1973L272.88 43.2722L272.895 43.3471L272.91 43.4215L272.927 43.4959L272.944 43.5698L272.962 43.6437L272.981 43.7169L273 43.7903L273.02 43.8631L273.041 43.9358L273.063 44.008L273.085 44.0801L273.108 44.1517L273.131 44.2229L273.156 44.2941L273.181 44.3647L273.207 44.4349L273.233 44.5049L273.261 44.5746L273.288 44.6438L273.317 44.7126L273.346 44.781L273.376 44.8492L273.407 44.917L273.438 44.9843L273.47 45.0512L273.502 45.1176L273.536 45.1839L273.569 45.2494L273.604 45.3146L273.639 45.3795L273.675 45.4438L273.711 45.5078L273.748 45.5714L273.785 45.6343L273.823 45.6969L273.862 45.759L273.901 45.8206L273.941 45.8818L273.982 45.9425L274.023 46.0028L274.064 46.0622L274.106 46.1216L274.149 46.1803L274.192 46.2384L274.236 46.2962L274.281 46.3533L274.325 46.4099L274.371 46.466L274.417 46.5217L274.463 46.5766L274.51 46.6312L274.557 46.6852L274.605 46.7385L274.654 46.7915L274.703 46.8436L274.752 46.8955L274.802 46.9467L274.852 46.9973L274.903 47.0473L274.954 47.0968L275.006 47.1457L275.058 47.194L275.11 47.2417L275.163 47.2889L275.216 47.3354L275.27 47.3813L275.324 47.4267L275.378 47.4714L275.433 47.5156L275.489 47.5591L275.544 47.6019L275.6 47.6442L275.656 47.686L275.713 47.727L275.77 47.7674L275.828 47.8073L275.885 47.8465L275.943 47.885L276.001 47.9229L276.06 47.9602L276.119 47.9969L276.178 48.0328L276.238 48.0682L276.298 48.103L276.357 48.137L276.418 48.1704L276.478 48.2033L276.539 48.2354L276.6 48.2668L276.661 48.2976L276.723 48.3278L276.785 48.3573L276.847 48.3862L276.909 48.4144L276.971 48.4419L277.034 48.4688L277.097 48.495L277.159 48.5206L277.222 48.5455L277.286 48.5696L277.349 48.5932L277.412 48.6161L277.476 48.6384L277.54 48.6598L277.604 48.6808L277.668 48.701L277.732 48.7206L277.796 48.7394L277.861 48.7577L277.925 48.7752L277.99 48.7921L278.054 48.8083L278.119 48.8239L278.184 48.8387L278.248 48.8529L278.313 48.8665L278.378 48.8794L278.443 48.8917L278.508 48.9032L278.573 48.9141L278.638 48.9243L278.703 48.934L278.768 48.9428L278.833 48.951L278.897 48.9586L278.962 48.9656L279.027 48.9718L279.092 48.9775L279.157 48.9824L279.222 48.9868L279.286 48.9904L279.351 48.9934L279.415 48.9958L279.48 48.9975L279.544 48.9986L279.608 48.999L279.673 48.9988L279.737 48.998L279.801 48.9965L279.865 48.9944L279.928 48.9917L279.992 48.9883L280.055 48.9843L280.118 48.9797L280.182 48.9745L280.245 48.9686L280.307 48.9622L280.37 48.955L280.432 48.9473L280.495 48.939L280.557 48.9301L280.619 48.9206L280.681 48.9105L280.742 48.8997L280.803 48.8885L280.864 48.8765L280.925 48.864L280.986 48.8509L281.046 48.8373L281.106 48.823L281.166 48.8082L281.226 48.7929L281.285 48.777L281.344 48.7605L281.403 48.7433L281.461 48.7257L281.519 48.7076L281.578 48.6887L281.635 48.6695L281.692 48.6498L281.749 48.6294L281.806 48.6085L281.863 48.587L281.919 48.5651L281.975 48.5426L282.03 48.5197L282.085 48.4961L282.14 48.4721L282.194 48.4476L282.249 48.4226L282.302 48.3971L282.355 48.3711L282.409 48.3447L282.461 48.3178L282.513 48.2903L282.565 48.2623L282.617 48.234L282.668 48.2052L282.719 48.1758L282.769 48.1461L282.819 48.1158L282.868 48.0852L282.918 48.0541L282.966 48.0226L283.015 47.9906L283.062 47.9583L283.11 47.9254L283.157 47.8922L283.203 47.8587L283.25 47.8246L283.295 47.7901L283.341 47.7553L283.385 47.7201L283.43 47.6844L283.474 47.6485L283.517 47.6122L283.56 47.5755L283.603 47.5384L283.645 47.501L283.687 47.4631L283.728 47.425L283.768 47.3866L283.809 47.3478L283.848 47.3086L283.888 47.2692L283.926 47.2294L283.965 47.1892L284.002 47.1489L284.04 47.1081L284.076 47.0672L284.113 47.0258L284.149 46.9842L284.184 46.9425L284.219 46.9002L284.253 46.8579L284.287 46.8152L284.32 46.7723L284.353 46.7291L284.385 46.6856L284.417 46.6421L284.448 46.5981L284.479 46.5539L284.509 46.5097L284.538 46.465L284.568 46.4203L284.596 46.3753L284.624 46.3302L284.652 46.2848L284.679 46.2392L284.705 46.1934L284.731 46.1475L284.757 46.1014L284.782 46.055L284.806 46.0088L284.83 45.9622L284.853 45.9154L284.876 45.8686L284.898 45.8215L284.92 45.7744L284.941 45.7271L284.962 45.6799L284.982 45.6323L285.001 45.5848L285.021 45.5368L285.039 45.4893L285.057 45.4411L285.074 45.3936L285.091 45.3453L285.108 45.297L285.123 45.249L285.139 45.2007L285.153 45.1526L285.168 45.1039L285.181 45.0558L285.194 45.007L285.207 44.959L285.219 44.9102L285.23 44.8615L285.241 44.8132L285.252 44.7649L285.262 44.716L285.271 44.6676L285.28 44.6187L285.288 44.5705L285.296 44.522L285.303 44.4734L285.31 44.4248L285.316 44.3763L285.322 44.328L285.327 44.2799L285.332 44.2313L285.336 44.1831L285.34 44.1349L285.343 44.0867L285.346 44.0387L285.348 43.9907L285.349 43.943L285.35 43.895L285.351 43.847L285.351 43.7995L285.351 43.752L285.35 43.7047L285.348 43.6574L285.347 43.6099L285.344 43.5633L285.341 43.5157L285.338 43.4693L285.334 43.4227L285.33 43.3757L285.325 43.3294L285.32 43.2834L285.314 43.2368L285.308 43.1912L285.301 43.1453L285.294 43.1L285.286 43.0543L285.278 43.0089L285.269 42.9639L285.26 42.9191L285.251 42.8741L285.241 42.8297L285.231 42.7854L285.22 42.7413L285.209 42.6976L285.197 42.6535L285.185 42.6103L285.172 42.5667L285.159 42.5239L285.146 42.481L285.132 42.4385L285.118 42.3961L285.103 42.3538L285.088 42.3122L285.073 42.2707L285.057 42.2291L285.04 42.1881L285.024 42.1469L285.007 42.1067L284.989 42.0661L284.971 42.0261L284.953 41.9865L284.934 41.9469L284.916 41.9077L284.896 41.8687L284.876 41.83L284.856 41.7917L284.836 41.7536L284.815 41.7158L284.794 41.6783L284.773 41.6411L284.751 41.6042L284.729 41.5677L284.706 41.5313L284.683 41.4955L284.66 41.4599L284.637 41.4246L284.613 41.3895L284.589 41.3549L284.564 41.3205L284.54 41.2865L284.515 41.2529L284.489 41.2195L284.464 41.1865L284.438 41.1538L284.412 41.1216L284.385 41.0896L284.359 41.0579L284.332 41.0266L284.304 40.9957L284.277 40.9651L284.249 40.9349L284.221 40.9049L284.193 40.8755L284.164 40.8463L284.136 40.8174L284.107 40.7891L284.077 40.7611L284.048 40.7334L284.018 40.706L283.989 40.6791L283.958 40.6524L283.928 40.6263L283.898 40.6004L283.867 40.575L283.836 40.5499L283.805 40.5252L283.774 40.5008L283.742 40.4768L283.711 40.4533L283.679 40.4301L283.647 40.4073L283.615 40.3849L283.583 40.3628L283.551 40.3412L283.518 40.3199L283.485 40.299L283.453 40.2785L283.419 40.2584L283.386 40.2387L283.353 40.2194L283.32 40.2005L283.287 40.1819L283.253 40.1637L283.22 40.1459L283.186 40.1285L283.152 40.1116L283.118 40.0949L283.084 40.0787L283.05 40.063L283.016 40.0475L282.982 40.0324L282.947 40.0177L282.913 40.0035L282.879 39.9897L282.844 39.9762L282.81 39.9631L282.775 39.9504L282.741 39.9381L282.706 39.9262L282.671 39.9145L282.637 39.9035L282.602 39.8926L282.567 39.8822L282.533 39.8722L282.498 39.8626L282.463 39.8534L282.428 39.8446L282.394 39.836L282.359 39.828L282.324 39.8202L282.29 39.8129L282.255 39.8059L282.22 39.7993L282.186 39.7931L282.151 39.7872L282.117 39.7818L282.082 39.7767L282.048 39.7719L282.013 39.7675L281.979 39.7635L281.945 39.7599L281.91 39.7567L281.876 39.7537L281.842 39.7511L281.808 39.7489L281.774 39.747L281.74 39.7456L281.707 39.7445L281.673 39.7436L281.64 39.7432L281.606 39.743L281.573 39.7434L281.539 39.7439L281.506 39.7448L281.473 39.7461L281.44 39.7477L281.407 39.7497L281.375 39.7519L281.342 39.7544L281.31 39.7574L281.278 39.7606L281.245 39.7642L281.213 39.7681L281.182 39.7723L281.15 39.7768L281.118 39.7817L281.087 39.7868L281.056 39.7922L281.025 39.798L280.994 39.804L280.963 39.8104L280.932 39.817L280.902 39.824Z" fill="white"/>
</svg>
